<?xml version="1.0" standalone="no"?>
<svg xmlns:xlink="http://www.w3.org/1999/xlink" id="wave" style="transform:rotate(0deg); transition: 0.3s" viewBox="0 0 1440 490" version="1.1" xmlns="http://www.w3.org/2000/svg"><defs><linearGradient id="sw-gradient-0" x1="0" x2="0" y1="1" y2="0"><stop stop-color="rgba(67, 70, 75, 1)" offset="0%"/><stop stop-color="rgba(67, 70, 75, 1)" offset="100%"/></linearGradient></defs><path style="transform:translate(0, 0px); opacity:1" fill="url(#sw-gradient-0)" d="M0,98L80,89.8C160,82,320,65,480,106.2C640,147,800,245,960,236.8C1120,229,1280,114,1440,130.7C1600,147,1760,294,1920,343C2080,392,2240,343,2400,326.7C2560,310,2720,327,2880,326.7C3040,327,3200,310,3360,261.3C3520,212,3680,131,3840,138.8C4000,147,4160,245,4320,261.3C4480,278,4640,212,4800,187.8C4960,163,5120,180,5280,212.3C5440,245,5600,294,5760,334.8C5920,376,6080,408,6240,359.3C6400,310,6560,180,6720,114.3C6880,49,7040,49,7200,114.3C7360,180,7520,310,7680,302.2C7840,294,8000,147,8160,147C8320,147,8480,294,8640,343C8800,392,8960,343,9120,334.8C9280,327,9440,359,9600,326.7C9760,294,9920,196,10080,163.3C10240,131,10400,163,10560,155.2C10720,147,10880,98,11040,73.5C11200,49,11360,49,11440,49L11520,49L11520,490L11440,490C11360,490,11200,490,11040,490C10880,490,10720,490,10560,490C10400,490,10240,490,10080,490C9920,490,9760,490,9600,490C9440,490,9280,490,9120,490C8960,490,8800,490,8640,490C8480,490,8320,490,8160,490C8000,490,7840,490,7680,490C7520,490,7360,490,7200,490C7040,490,6880,490,6720,490C6560,490,6400,490,6240,490C6080,490,5920,490,5760,490C5600,490,5440,490,5280,490C5120,490,4960,490,4800,490C4640,490,4480,490,4320,490C4160,490,4000,490,3840,490C3680,490,3520,490,3360,490C3200,490,3040,490,2880,490C2720,490,2560,490,2400,490C2240,490,2080,490,1920,490C1760,490,1600,490,1440,490C1280,490,1120,490,960,490C800,490,640,490,480,490C320,490,160,490,80,490L0,490Z"/></svg>