<?xml version="1.0" standalone="no"?>
<svg xmlns:xlink="http://www.w3.org/1999/xlink" id="wave" style="transform:rotate(180deg); transition: 0.3s" viewBox="0 0 1440 430" version="1.1" xmlns="http://www.w3.org/2000/svg"><defs><linearGradient id="sw-gradient-0" x1="0" x2="0" y1="1" y2="0"><stop stop-color="rgba(0, 18, 112, 1)" offset="0%"/><stop stop-color="rgba(0, 18, 112, 1)" offset="100%"/></linearGradient></defs><path style="transform:translate(0, 0px); opacity:1" fill="url(#sw-gradient-0)" d="M0,301L120,315.3C240,330,480,358,720,358.3C960,358,1200,330,1440,315.3C1680,301,1920,301,2160,293.8C2400,287,2640,272,2880,258C3120,244,3360,229,3600,243.7C3840,258,4080,301,4320,329.7C4560,358,4800,373,5040,379.8C5280,387,5520,387,5760,365.5C6000,344,6240,301,6480,258C6720,215,6960,172,7200,143.3C7440,115,7680,100,7920,121.8C8160,143,8400,201,8640,215C8880,229,9120,201,9360,215C9600,229,9840,287,10080,279.5C10320,272,10560,201,10800,150.5C11040,100,11280,72,11520,86C11760,100,12000,158,12240,186.3C12480,215,12720,215,12960,229.3C13200,244,13440,272,13680,272.3C13920,272,14160,244,14400,243.7C14640,244,14880,272,15120,272.3C15360,272,15600,244,15840,200.7C16080,158,16320,100,16560,93.2C16800,86,17040,129,17160,150.5L17280,172L17280,430L17160,430C17040,430,16800,430,16560,430C16320,430,16080,430,15840,430C15600,430,15360,430,15120,430C14880,430,14640,430,14400,430C14160,430,13920,430,13680,430C13440,430,13200,430,12960,430C12720,430,12480,430,12240,430C12000,430,11760,430,11520,430C11280,430,11040,430,10800,430C10560,430,10320,430,10080,430C9840,430,9600,430,9360,430C9120,430,8880,430,8640,430C8400,430,8160,430,7920,430C7680,430,7440,430,7200,430C6960,430,6720,430,6480,430C6240,430,6000,430,5760,430C5520,430,5280,430,5040,430C4800,430,4560,430,4320,430C4080,430,3840,430,3600,430C3360,430,3120,430,2880,430C2640,430,2400,430,2160,430C1920,430,1680,430,1440,430C1200,430,960,430,720,430C480,430,240,430,120,430L0,430Z"/></svg>