<?xml version="1.0" standalone="no"?>
<svg xmlns:xlink="http://www.w3.org/1999/xlink" id="wave" style="transform:rotate(0deg); transition: 0.3s" viewBox="0 0 1440 400" version="1.1" xmlns="http://www.w3.org/2000/svg"><defs><linearGradient id="sw-gradient-0" x1="0" x2="0" y1="1" y2="0"><stop stop-color="rgba(67, 70, 75, 1)" offset="0%"/><stop stop-color="rgba(67, 70, 75, 1)" offset="100%"/></linearGradient></defs><path style="transform:translate(0, 0px); opacity:1" fill="url(#sw-gradient-0)" d="M0,80L80,73.3C160,67,320,53,480,86.7C640,120,800,200,960,193.3C1120,187,1280,93,1440,106.7C1600,120,1760,240,1920,280C2080,320,2240,280,2400,266.7C2560,253,2720,267,2880,266.7C3040,267,3200,253,3360,213.3C3520,173,3680,107,3840,113.3C4000,120,4160,200,4320,213.3C4480,227,4640,173,4800,153.3C4960,133,5120,147,5280,173.3C5440,200,5600,240,5760,273.3C5920,307,6080,333,6240,293.3C6400,253,6560,147,6720,93.3C6880,40,7040,40,7200,93.3C7360,147,7520,253,7680,246.7C7840,240,8000,120,8160,120C8320,120,8480,240,8640,280C8800,320,8960,280,9120,273.3C9280,267,9440,293,9600,266.7C9760,240,9920,160,10080,133.3C10240,107,10400,133,10560,126.7C10720,120,10880,80,11040,60C11200,40,11360,40,11440,40L11520,40L11520,400L11440,400C11360,400,11200,400,11040,400C10880,400,10720,400,10560,400C10400,400,10240,400,10080,400C9920,400,9760,400,9600,400C9440,400,9280,400,9120,400C8960,400,8800,400,8640,400C8480,400,8320,400,8160,400C8000,400,7840,400,7680,400C7520,400,7360,400,7200,400C7040,400,6880,400,6720,400C6560,400,6400,400,6240,400C6080,400,5920,400,5760,400C5600,400,5440,400,5280,400C5120,400,4960,400,4800,400C4640,400,4480,400,4320,400C4160,400,4000,400,3840,400C3680,400,3520,400,3360,400C3200,400,3040,400,2880,400C2720,400,2560,400,2400,400C2240,400,2080,400,1920,400C1760,400,1600,400,1440,400C1280,400,1120,400,960,400C800,400,640,400,480,400C320,400,160,400,80,400L0,400Z"/></svg>