<?xml version="1.0" standalone="no"?>
<svg xmlns:xlink="http://www.w3.org/1999/xlink" id="wave" style="transform:rotate(180deg); transition: 0.3s" viewBox="0 0 1440 260" version="1.1" xmlns="http://www.w3.org/2000/svg"><defs><linearGradient id="sw-gradient-0" x1="0" x2="0" y1="1" y2="0"><stop stop-color="rgba(67, 70, 75, 1)" offset="0%"/><stop stop-color="rgba(67, 70, 75, 1)" offset="100%"/></linearGradient></defs><path style="transform:translate(0, 0px); opacity:1" fill="url(#sw-gradient-0)" d="M0,156L120,164.7C240,173,480,191,720,199.3C960,208,1200,208,1440,190.7C1680,173,1920,139,2160,130C2400,121,2640,139,2880,147.3C3120,156,3360,156,3600,130C3840,104,4080,52,4320,34.7C4560,17,4800,35,5040,69.3C5280,104,5520,156,5760,182C6000,208,6240,208,6480,195C6720,182,6960,156,7200,134.3C7440,113,7680,95,7920,91C8160,87,8400,95,8640,86.7C8880,78,9120,52,9360,65C9600,78,9840,130,10080,160.3C10320,191,10560,199,10800,208C11040,217,11280,225,11520,216.7C11760,208,12000,182,12240,173.3C12480,165,12720,173,12960,169C13200,165,13440,147,13680,117C13920,87,14160,43,14400,43.3C14640,43,14880,87,15120,99.7C15360,113,15600,95,15840,73.7C16080,52,16320,26,16560,17.3C16800,9,17040,17,17160,21.7L17280,26L17280,260L17160,260C17040,260,16800,260,16560,260C16320,260,16080,260,15840,260C15600,260,15360,260,15120,260C14880,260,14640,260,14400,260C14160,260,13920,260,13680,260C13440,260,13200,260,12960,260C12720,260,12480,260,12240,260C12000,260,11760,260,11520,260C11280,260,11040,260,10800,260C10560,260,10320,260,10080,260C9840,260,9600,260,9360,260C9120,260,8880,260,8640,260C8400,260,8160,260,7920,260C7680,260,7440,260,7200,260C6960,260,6720,260,6480,260C6240,260,6000,260,5760,260C5520,260,5280,260,5040,260C4800,260,4560,260,4320,260C4080,260,3840,260,3600,260C3360,260,3120,260,2880,260C2640,260,2400,260,2160,260C1920,260,1680,260,1440,260C1200,260,960,260,720,260C480,260,240,260,120,260L0,260Z"/></svg>