<?xml version="1.0" standalone="no"?>
<svg xmlns:xlink="http://www.w3.org/1999/xlink" id="wave" style="transform:rotate(0deg); transition: 0.3s" viewBox="0 0 1440 490" version="1.1" xmlns="http://www.w3.org/2000/svg"><defs><linearGradient id="sw-gradient-0" x1="0" x2="0" y1="1" y2="0"><stop stop-color="rgba(67, 70, 75, 1)" offset="0%"/><stop stop-color="rgba(67, 70, 75, 1)" offset="100%"/></linearGradient></defs><path style="transform:translate(0, 0px); opacity:1" fill="url(#sw-gradient-0)" d="M0,245L120,261.3C240,278,480,310,720,285.8C960,261,1200,180,1440,163.3C1680,147,1920,196,2160,236.8C2400,278,2640,310,2880,343C3120,376,3360,408,3600,408.3C3840,408,4080,376,4320,334.8C4560,294,4800,245,5040,196C5280,147,5520,98,5760,106.2C6000,114,6240,180,6480,236.8C6720,294,6960,343,7200,310.3C7440,278,7680,163,7920,122.5C8160,82,8400,114,8640,147C8880,180,9120,212,9360,253.2C9600,294,9840,343,10080,351.2C10320,359,10560,327,10800,294C11040,261,11280,229,11520,253.2C11760,278,12000,359,12240,326.7C12480,294,12720,147,12960,114.3C13200,82,13440,163,13680,228.7C13920,294,14160,343,14400,302.2C14640,261,14880,131,15120,65.3C15360,0,15600,0,15840,65.3C16080,131,16320,261,16560,285.8C16800,310,17040,229,17160,187.8L17280,147L17280,490L17160,490C17040,490,16800,490,16560,490C16320,490,16080,490,15840,490C15600,490,15360,490,15120,490C14880,490,14640,490,14400,490C14160,490,13920,490,13680,490C13440,490,13200,490,12960,490C12720,490,12480,490,12240,490C12000,490,11760,490,11520,490C11280,490,11040,490,10800,490C10560,490,10320,490,10080,490C9840,490,9600,490,9360,490C9120,490,8880,490,8640,490C8400,490,8160,490,7920,490C7680,490,7440,490,7200,490C6960,490,6720,490,6480,490C6240,490,6000,490,5760,490C5520,490,5280,490,5040,490C4800,490,4560,490,4320,490C4080,490,3840,490,3600,490C3360,490,3120,490,2880,490C2640,490,2400,490,2160,490C1920,490,1680,490,1440,490C1200,490,960,490,720,490C480,490,240,490,120,490L0,490Z"/></svg>